# xmcd CD database file
#
# Track frame offsets:
#	150
#	11357
#	27676
#	48804
#	64741
#	83165
#	97027
#	117090
#	132273
#	148694
#	170042
#	187042
#
# Disc length: 2944 seconds
#
# Revision: 0
# Processed by: cddbd v1.4PL0 Copyright (c) Steve Scherf et al.
# Submitted via: CDex 1.40Release
#
DISCID=a50b7e0c
DTITLE=Liane Edwards - Inside the Machine
DYEAR=1900
DGENRE=Country
TTITLE0=Faling apart
TTITLE1=Boot scootin' boogie
TTITLE2=If only I'd known
TTITLE3=Ooh Las Vegas
TTITLE4=Midnight train
TTITLE5=Twist and shout
TTITLE6=Too late
TTITLE7=Tonight the heartache's on me
TTITLE8=Ride on
TTITLE9=Pina colada
TTITLE10=Kanter gold
TTITLE11=All night long
EXTD=ID3G: 2
EXTT0=
EXTT1=
EXTT2=
EXTT3=
EXTT4=
EXTT5=
EXTT6=
EXTT7=
EXTT8=
EXTT9=
EXTT10=
EXTT11=
PLAYORDER=
